<?xml version="1.0" encoding="UTF-8"?>
<!DOCTYPE svg PUBLIC "-//W3C//DTD SVG 1.1//EN" "http://www.w3.org/Graphics/SVG/1.1/DTD/svg11.dtd">
<svg xmlns="http://www.w3.org/2000/svg" version="1.1" width="350px" height="40px" style="shape-rendering:geometricPrecision; text-rendering:geometricPrecision; image-rendering:optimizeQuality; fill-rule:evenodd; clip-rule:evenodd" xmlns:xlink="http://www.w3.org/1999/xlink">
<g><path style="opacity:1" fill="#fcfbfc" d="M -0.5,-0.5 C 116.167,-0.5 232.833,-0.5 349.5,-0.5C 349.5,12.8333 349.5,26.1667 349.5,39.5C 232.833,39.5 116.167,39.5 -0.5,39.5C -0.5,26.1667 -0.5,12.8333 -0.5,-0.5 Z"/></g>
<g><path style="opacity:1" fill="#2e293c" d="M 54.5,6.5 C 64.6281,5.76214 67.9614,9.92881 64.5,19C 69.8274,29.4808 66.4941,34.3141 54.5,33.5C 54.5,24.5 54.5,15.5 54.5,6.5 Z"/></g>
<g><path style="opacity:1" fill="#342e41" d="M 71.5,6.5 C 75.1667,6.5 78.8333,6.5 82.5,6.5C 82.5,8.16667 82.5,9.83333 82.5,11.5C 80.5,11.5 78.5,11.5 76.5,11.5C 76.5,13.1667 76.5,14.8333 76.5,16.5C 78.5,16.5 80.5,16.5 82.5,16.5C 82.5,18.1667 82.5,19.8333 82.5,21.5C 80.5,21.5 78.5,21.5 76.5,21.5C 76.5,23.8333 76.5,26.1667 76.5,28.5C 78.5,28.5 80.5,28.5 82.5,28.5C 82.5,30.1667 82.5,31.8333 82.5,33.5C 78.8333,33.5 75.1667,33.5 71.5,33.5C 71.5,24.5 71.5,15.5 71.5,6.5 Z"/></g>
<g><path style="opacity:1" fill="#332d40" d="M 118.5,6.5 C 123.167,6.5 127.833,6.5 132.5,6.5C 133.167,10.5 131.5,12.1667 127.5,11.5C 127.5,18.8333 127.5,26.1667 127.5,33.5C 126.167,33.5 124.833,33.5 123.5,33.5C 123.666,26.1591 123.5,18.8258 123,11.5C 121.644,10.6198 120.144,10.2865 118.5,10.5C 118.5,9.16667 118.5,7.83333 118.5,6.5 Z"/></g>
<g><path style="opacity:1" fill="#352f42" d="M 151.5,7.5 C 151.5,8.5 151.5,9.5 151.5,10.5C 149.265,10.2053 147.265,10.5386 145.5,11.5C 139.834,15.8305 139.001,21.1638 143,27.5C 144.11,29.0368 145.61,29.7035 147.5,29.5C 147.5,27.5 147.5,25.5 147.5,23.5C 146.5,23.5 145.5,23.5 144.5,23.5C 144.33,22.1779 144.663,21.0113 145.5,20C 147.769,19.2419 149.936,19.4086 152,20.5C 152.499,24.8206 152.666,29.1539 152.5,33.5C 139.369,33.9709 134.203,27.6375 137,14.5C 139.973,7.92771 144.806,5.59437 151.5,7.5 Z"/></g>
<g><path style="opacity:1" fill="#383245" d="M 156.5,6.5 C 163.68,4.90999 168.014,7.57666 169.5,14.5C 169.232,17.7033 167.898,20.37 165.5,22.5C 167.167,25.8333 168.833,29.1667 170.5,32.5C 168.833,33.8333 167.167,33.8333 165.5,32.5C 164.095,29.7874 162.595,27.1207 161,24.5C 160.502,27.4816 160.335,30.4816 160.5,33.5C 158.833,33.5 157.167,33.5 155.5,33.5C 155.196,24.4161 155.529,15.4161 156.5,6.5 Z"/></g>
<g><path style="opacity:1" fill="#353043" d="M 181.5,6.5 C 188.105,6.2112 192.271,9.2112 194,15.5C 195.754,22.9148 193.588,28.7481 187.5,33C 180.756,34.7138 176.59,32.2138 175,25.5C 172.661,17.4007 174.827,11.0674 181.5,6.5 Z"/></g>
<g><path style="opacity:1" fill="#332d40" d="M 205.5,6.5 C 216.384,8.23461 220.217,14.5679 217,25.5C 214.73,33.2166 209.897,35.3832 202.5,32C 200.513,30.6811 199.346,28.8477 199,26.5C 198.333,21.8333 198.333,17.1667 199,12.5C 200.494,9.68648 202.66,7.68648 205.5,6.5 Z"/></g>
<g><path style="opacity:1" fill="#352f42" d="M 221.5,6.5 C 223.167,6.5 224.833,6.5 226.5,6.5C 227.828,12.1357 229.162,17.8024 230.5,23.5C 231.833,18.167 233.167,12.8337 234.5,7.5C 236.045,6.54811 237.712,6.21478 239.5,6.5C 237.333,15.1686 235.166,23.8353 233,32.5C 230.978,33.9909 229.312,33.6576 228,31.5C 225.521,23.2325 223.354,14.8991 221.5,6.5 Z"/></g>
<g><path style="opacity:1" fill="#302a3d" d="M 248.5,11.5 C 247.539,13.2646 247.205,15.2646 247.5,17.5C 249.833,17.5 252.167,17.5 254.5,17.5C 254.5,18.8333 254.5,20.1667 254.5,21.5C 252.167,21.5 249.833,21.5 247.5,21.5C 247.5,23.8333 247.5,26.1667 247.5,28.5C 249.833,28.5 252.167,28.5 254.5,28.5C 254.5,30.1667 254.5,31.8333 254.5,33.5C 250.833,33.5 247.167,33.5 243.5,33.5C 243.5,24.5 243.5,15.5 243.5,6.5C 247.167,6.5 250.833,6.5 254.5,6.5C 254.5,8.16667 254.5,9.83333 254.5,11.5C 252.5,11.5 250.5,11.5 248.5,11.5 Z"/></g>
<g><path style="opacity:1" fill="#8d8a95" d="M 151.5,7.5 C 152.434,8.56764 152.768,9.90097 152.5,11.5C 150.167,11.5 147.833,11.5 145.5,11.5C 147.265,10.5386 149.265,10.2053 151.5,10.5C 151.5,9.5 151.5,8.5 151.5,7.5 Z"/></g>
<g><path style="opacity:1" fill="#f7f6f7" d="M 160.5,11.5 C 163.243,11.0772 164.576,12.2439 164.5,15C 164.505,17.1628 163.505,18.6628 161.5,19.5C 160.52,16.9135 160.187,14.2469 160.5,11.5 Z"/></g>
<g><path style="opacity:1" fill="#f5f5f6" d="M 182.5,10.5 C 188.13,10.9752 190.797,14.1419 190.5,20C 190.727,24.721 188.727,27.8877 184.5,29.5C 182.893,29.363 181.559,28.6964 180.5,27.5C 177.44,21.2681 178.107,15.6015 182.5,10.5 Z"/></g>
<g><path style="opacity:1" fill="#f7f7f8" d="M 205.5,10.5 C 208.961,10.1459 211.461,11.4792 213,14.5C 213.791,18.9255 213.457,23.2589 212,27.5C 208.111,30.6105 205.111,29.9439 203,25.5C 201.776,20.0435 202.609,15.0435 205.5,10.5 Z"/></g>
<g><path style="opacity:1" fill="#d7d7da" d="M 58.5,10.5 C 60.7224,10.5587 61.7224,11.7253 61.5,14C 61.6125,15.6624 60.9458,16.8291 59.5,17.5C 58.5258,15.2573 58.1924,12.924 58.5,10.5 Z"/></g>
<g><path style="opacity:1" fill="#716d7a" d="M 248.5,11.5 C 248.5,13.1667 248.5,14.8333 248.5,16.5C 250.735,16.2053 252.735,16.5386 254.5,17.5C 252.167,17.5 249.833,17.5 247.5,17.5C 247.205,15.2646 247.539,13.2646 248.5,11.5 Z"/></g>
<g><path style="opacity:1" fill="#dfdee1" d="M 58.5,21.5 C 61.2431,21.0772 62.5765,22.2439 62.5,25C 62.5053,27.1628 61.5053,28.6628 59.5,29.5C 58.52,26.9135 58.1866,24.2469 58.5,21.5 Z"/></g>
<g><path style="opacity:1" fill="#383346" d="M 100.5,6.5 C 105.265,15.1928 109.932,24.0261 114.5,33C 105.482,33.832 96.4815,33.6653 87.5,32.5C 91.8466,23.8068 96.1799,15.1401 100.5,6.5 Z"/></g>
<g><path style="opacity:1" fill="#e9e9eb" d="M 107.5,25.5 C 104.833,26.8333 102.167,26.8333 99.5,25.5C 100.952,24.6981 102.618,24.1981 104.5,24C 103.711,21.6349 102.544,19.4682 101,17.5C 98.8333,21.1667 96.6667,24.8333 94.5,28.5C 99.8333,29.1667 105.167,29.8333 110.5,30.5C 104.202,31.4963 97.8682,31.8297 91.5,31.5C 93.9544,24.8595 97.1211,18.5261 101,12.5C 103.705,16.5765 105.872,20.9099 107.5,25.5 Z"/></g>
<g><path style="opacity:1" fill="#96939d" d="M 99.5,25.5 C 102.167,26.8333 104.833,26.8333 107.5,25.5C 108.043,25.56 108.376,25.8933 108.5,26.5C 105.167,27.8333 101.833,27.8333 98.5,26.5C 98.6236,25.8933 98.9569,25.56 99.5,25.5 Z"/></g>
</svg>
